<?xml version="1.0" encoding="iso-8859-1"?>
<!-- Generator: Adobe Illustrator 19.0.0, SVG Export Plug-In . SVG Version: 6.00 Build 0)  -->
<svg version="1.1" id="Capa_1" xmlns="http://www.w3.org/2000/svg" xmlns:xlink="http://www.w3.org/1999/xlink" x="0px" y="0px"
	 viewBox="0 0 512 512" style="enable-background:new 0 0 512 512;" xml:space="preserve">
<g>
	<g>
		<g>
			<path d="M456.533,153.6H422.4v-51.2c-0.028-23.553-19.114-42.639-42.667-42.667h-35.706C340.435,49.534,330.813,42.7,320,42.667
				h-17.067V25.6c-0.015-14.132-11.468-25.585-25.6-25.6h-102.4c-14.132,0.015-25.585,11.468-25.6,25.6v17.067h-17.067
				c-10.813,0.033-20.435,6.868-24.028,17.067H72.533C48.981,59.761,29.894,78.847,29.867,102.4v332.8
				c0.028,23.553,19.114,42.639,42.667,42.667h102.4v8.533c0.015,14.132,11.468,25.585,25.6,25.6h256
				c14.132-0.015,25.585-11.468,25.6-25.6V179.2C482.118,165.068,470.665,153.615,456.533,153.6z M166.4,25.6
				c0.006-4.71,3.823-8.527,8.533-8.533h102.4c4.71,0.006,8.527,3.823,8.533,8.533v17.067H166.4V25.6z M123.733,68.267
				c0.006-4.71,3.823-8.527,8.533-8.533H320c4.71,0.006,8.527,3.823,8.533,8.533V102.4c-0.006,4.71-3.823,8.527-8.533,8.533H132.267
				c-4.71-0.006-8.527-3.823-8.533-8.533V68.267z M174.933,179.2v281.6h-102.4c-14.132-0.015-25.585-11.468-25.6-25.6V102.4
				c0.015-14.132,11.468-25.585,25.6-25.6h34.133v25.6c0.015,14.132,11.468,25.585,25.6,25.6H320
				c14.132-0.015,25.585-11.468,25.6-25.6V76.8h34.133c14.132,0.015,25.585,11.468,25.6,25.6v51.2h-204.8
				C186.401,153.615,174.949,165.068,174.933,179.2z M465.067,486.4c-0.006,4.71-3.823,8.527-8.533,8.533h-256
				c-4.71-0.006-8.527-3.823-8.533-8.533V179.2c0.006-4.71,3.823-8.527,8.533-8.533h256c4.71,0.006,8.527,3.823,8.533,8.533V486.4z"
				/>
			<path d="M405.333,256h-153.6c-4.713,0-8.533,3.82-8.533,8.533s3.82,8.533,8.533,8.533h153.6c4.713,0,8.533-3.82,8.533-8.533
				S410.046,256,405.333,256z"/>
			<path d="M405.333,298.667h-153.6c-4.713,0-8.533,3.82-8.533,8.533s3.82,8.533,8.533,8.533h153.6c4.713,0,8.533-3.82,8.533-8.533
				S410.046,298.667,405.333,298.667z"/>
			<path d="M405.333,341.333h-153.6c-4.713,0-8.533,3.82-8.533,8.533s3.82,8.533,8.533,8.533h153.6c4.713,0,8.533-3.82,8.533-8.533
				S410.046,341.333,405.333,341.333z"/>
			<path d="M405.333,384h-153.6c-4.713,0-8.533,3.821-8.533,8.533c0,4.713,3.82,8.533,8.533,8.533h153.6
				c4.713,0,8.533-3.821,8.533-8.533C413.867,387.821,410.046,384,405.333,384z"/>
		</g>
	</g>
</g>
<g>
</g>
<g>
</g>
<g>
</g>
<g>
</g>
<g>
</g>
<g>
</g>
<g>
</g>
<g>
</g>
<g>
</g>
<g>
</g>
<g>
</g>
<g>
</g>
<g>
</g>
<g>
</g>
<g>
</g>
</svg>
